<svg xmlns="http://www.w3.org/2000/svg" xmlns:xlink="http://www.w3.org/1999/xlink" version="1.1" class="" pagealignment="none" x="0px" y="0px" width="842px" height="595px" viewBox="0 0 842 595" enable-background="new 0 0 842 595" xml:space="preserve"><defs><linearGradient x1="0" y1="0" x2="0" y2="217" id="_1472935697976_0_" gradientUnits="userSpaceOnUse" gradientTransform="matrix(1 0 0 1 0 0)"><stop offset="0" style="stop-color:rgb(82, 237, 199)"></stop><stop offset="1" style="stop-color:rgb(90, 200, 251)"></stop></linearGradient><linearGradient x1="-1.1368683772161603e-13" y1="1.7053025658242404e-13" x2="-1.1368683772161603e-13" y2="88.28828828828824" id="_1472935697976_1_" gradientUnits="userSpaceOnUse" gradientTransform="matrix(1 0 0 1 0 0)"><stop offset="0" style="stop-color:rgb(85, 239, 203)"></stop><stop offset="1" style="stop-color:rgb(91, 202, 255)"></stop></linearGradient><linearGradient x1="-1.1368683772161603e-13" y1="1.7053025658242404e-13" x2="-1.1368683772161603e-13" y2="89.64163070633725" id="_1472935697976_2_" gradientUnits="userSpaceOnUse" gradientTransform="matrix(1 0 0 1 0 0)"><stop offset="0" style="stop-color:rgb(85, 239, 203)"></stop><stop offset="1" style="stop-color:rgb(91, 202, 255)"></stop></linearGradient><linearGradient x1="0" y1="0" x2="0" y2="217" id="_1472935697976_3_" gradientUnits="userSpaceOnUse" gradientTransform="matrix(1 0 0 1 0 0)"><stop offset="0" style="stop-color:rgb(82, 237, 199)"></stop><stop offset="1" style="stop-color:rgb(90, 200, 251)"></stop></linearGradient></defs><g type="LAYER" name="workspace" id="workspace" locked="true"></g><g type="LAYER" name="Layer 01" id="Layer 01"><text type="textBox" transform="matrix(0.9999999999999982 0 0 0.9999999999999988 83.11895920474345 207.10511585989155)" width="107.11071107110715" height="217" stroke-width="2" stroke-miterlimit="3" stroke="url(#_1472935697976_0_)" fill="#FFFFFF" fill-opacity="0" font-family="Aclonica" font-size="200" text-align="left" text-anchor="start"><tspan x="0" y="200">G</tspan></text><path transform="matrix(1 0 0 1 246.14176417641679 314.01290129012904)" width="12.85328532853373" height="104.9684968496847" stroke-width="2.3749290031039005" stroke-miterlimit="3" stroke="url(#_1472935697976_1_)" fill="none" d="M-1.1368683772161603e-13,1.7053025658242404e-13 L-12.853285328533843,-8.747374737473649 L-12.853285328533843,88.65582504196357 L-1.1368683772161603e-13,96.22112211221105 L-1.1368683772161603e-13,1.7053025658242404e-13 Z "></path><path transform="matrix(1 0 0 1 263.8150315031495 312.54032628262803)" width="12.85328532853373" height="106.57752475247594" stroke-width="2.3930620351585126" stroke-miterlimit="3" stroke="url(#_1472935697976_2_)" fill="none" d="M-1.1368683772161603e-13,1.7053025658242404e-13 L-12.853285328533843,-8.881460396039586 L-12.853285328533843,90.01480131121286 L-1.1368683772161603e-13,97.69606435643635 L-1.1368683772161603e-13,1.7053025658242404e-13 Z "></path><text type="textBox" transform="matrix(0.9999999999999977 0 0 0.9999999999999988 263.54725472547034 260.1298019801979)" width="326.95544554455574" height="163" stroke-width="2" stroke-miterlimit="3" stroke="url(#_1472935697976_3_)" fill="#FFFFFF" fill-opacity="0" font-family="Aclonica" font-size="150" text-align="left" text-anchor="start"><tspan x="0" y="150">ass</tspan></text></g></svg>